<svg width="57" height="73" viewBox="0 0 57 73" fill="none" xmlns="http://www.w3.org/2000/svg">
<path id="Vector" fill-rule="evenodd" clip-rule="evenodd" d="M25.7303 71.3079C25.7303 71.3079 0.0107422 49.6471 0.0107422 28.3333C0.0107422 20.8189 2.99585 13.6122 8.30938 8.29864C13.6229 2.98511 20.8296 0 28.3441 0C35.8585 0 43.0652 2.98511 48.3788 8.29864C53.6923 13.6122 56.6774 20.8189 56.6774 28.3333C56.6774 49.6471 30.9578 71.3079 30.9578 71.3079C29.527 72.6254 27.1718 72.6113 25.7303 71.3079ZM28.3441 40.7292C29.9719 40.7292 31.5838 40.4085 33.0878 39.7856C34.5917 39.1626 35.9582 38.2496 37.1093 37.0985C38.2603 35.9475 39.1734 34.5809 39.7963 33.077C40.4193 31.5731 40.7399 29.9612 40.7399 28.3333C40.7399 26.7055 40.4193 25.0936 39.7963 23.5897C39.1734 22.0857 38.2603 20.7192 37.1093 19.5682C35.9582 18.4171 34.5917 17.504 33.0878 16.8811C31.5838 16.2581 29.9719 15.9375 28.3441 15.9375C25.0565 15.9375 21.9036 17.2435 19.5789 19.5682C17.2542 21.8928 15.9482 25.0458 15.9482 28.3333C15.9482 31.6209 17.2542 34.7738 19.5789 37.0985C21.9036 39.4232 25.0565 40.7292 28.3441 40.7292Z" fill="url(#paint0_linear_304_99)"/>
<defs>
<linearGradient id="paint0_linear_304_99" x1="28" y1="-5.56355e-10" x2="28" y2="45.5" gradientUnits="userSpaceOnUse">
<stop offset="0.3" stop-color="#2B8A44"/>
<stop offset="0.45" stop-color="#2B8A44"/>
<stop offset="1" stop-color="#808080"/>
</linearGradient>
</defs>
</svg>
