<svg width="58" height="73" viewBox="0 0 58 73" fill="none" xmlns="http://www.w3.org/2000/svg">
<path id="Vector" fill-rule="evenodd" clip-rule="evenodd" d="M26.1083 72.015C26.1083 72.015 0.388672 50.3541 0.388672 29.0404C0.388672 21.5259 3.37378 14.3192 8.68731 9.00567C14.0008 3.69214 21.2075 0.707031 28.722 0.707031C36.2365 0.707031 43.4432 3.69214 48.7567 9.00567C54.0702 14.3192 57.0553 21.5259 57.0553 29.0404C57.0553 50.3541 31.3358 72.015 31.3358 72.015C29.9049 73.3325 27.5497 73.3183 26.1083 72.015ZM28.722 41.4362C30.3498 41.4362 31.9618 41.1156 33.4657 40.4926C34.9696 39.8697 36.3361 38.9566 37.4872 37.8055C38.6382 36.6545 39.5513 35.288 40.1743 33.784C40.7972 32.2801 41.1178 30.6682 41.1178 29.0404C41.1178 27.4125 40.7972 25.8006 40.1743 24.2967C39.5513 22.7928 38.6382 21.4262 37.4872 20.2752C36.3361 19.1241 34.9696 18.2111 33.4657 17.5881C31.9618 16.9652 30.3498 16.6445 28.722 16.6445C25.4344 16.6445 22.2815 17.9505 19.9568 20.2752C17.6322 22.5999 16.3262 25.7528 16.3262 29.0404C16.3262 32.3279 17.6322 35.4809 19.9568 37.8055C22.2815 40.1302 25.4344 41.4362 28.722 41.4362Z" fill="#24753A"/>
</svg>
