<svg width="85" height="85" viewBox="0 0 85 85" fill="none" xmlns="http://www.w3.org/2000/svg">
<g id="weui:location-filled">
<path id="Vector" fill-rule="evenodd" clip-rule="evenodd" d="M39.8866 78.39C39.8866 78.39 14.167 56.7291 14.167 35.4154C14.167 27.9009 17.1521 20.6942 22.4656 15.3807C27.7792 10.0671 34.9859 7.08203 42.5003 7.08203C50.0148 7.08203 57.2215 10.0671 62.535 15.3807C67.8485 20.6942 70.8337 27.9009 70.8337 35.4154C70.8337 56.7291 45.1141 78.39 45.1141 78.39C43.6832 79.7075 41.328 79.6933 39.8866 78.39ZM42.5003 47.8112C44.1282 47.8112 45.7401 47.4906 47.244 46.8676C48.7479 46.2447 50.1144 45.3316 51.2655 44.1805C52.4166 43.0295 53.3296 41.663 53.9526 40.159C54.5755 38.6551 54.8962 37.0432 54.8962 35.4154C54.8962 33.7875 54.5755 32.1756 53.9526 30.6717C53.3296 29.1678 52.4166 27.8012 51.2655 26.6502C50.1144 25.4991 48.7479 24.5861 47.244 23.9631C45.7401 23.3402 44.1282 23.0195 42.5003 23.0195C39.2127 23.0195 36.0598 24.3255 33.7351 26.6502C31.4105 28.9749 30.1045 32.1278 30.1045 35.4154C30.1045 38.7029 31.4105 41.8559 33.7351 44.1805C36.0598 46.5052 39.2127 47.8112 42.5003 47.8112Z" fill="#808080"/>
</g>
</svg>
