<svg width="57" height="73" viewBox="0 0 57 73" fill="none" xmlns="http://www.w3.org/2000/svg">
<path id="Vector" fill-rule="evenodd" clip-rule="evenodd" d="M25.7196 71.6634C25.7196 71.6634 0 50.0026 0 28.6888C0 21.1743 2.98511 13.9676 8.29864 8.65411C13.6122 3.34058 20.8189 0.355469 28.3333 0.355469C35.8478 0.355469 43.0545 3.34058 48.368 8.65411C53.6816 13.9676 56.6667 21.1743 56.6667 28.6888C56.6667 50.0026 30.9471 71.6634 30.9471 71.6634C29.5163 72.9809 27.161 72.9667 25.7196 71.6634ZM28.3333 41.0846C29.9612 41.0846 31.5731 40.764 33.077 40.1411C34.5809 39.5181 35.9475 38.605 37.0985 37.454C38.2496 36.3029 39.1626 34.9364 39.7856 33.4325C40.4085 31.9286 40.7292 30.3166 40.7292 28.6888C40.7292 27.061 40.4085 25.4491 39.7856 23.9451C39.1626 22.4412 38.2496 21.0747 37.0985 19.9236C35.9475 18.7726 34.5809 17.8595 33.077 17.2365C31.5731 16.6136 29.9612 16.293 28.3333 16.293C25.0458 16.293 21.8928 17.599 19.5682 19.9236C17.2435 22.2483 15.9375 25.4012 15.9375 28.6888C15.9375 31.9764 17.2435 35.1293 19.5682 37.454C21.8928 39.7786 25.0458 41.0846 28.3333 41.0846Z" fill="url(#paint0_linear_304_109)"/>
<defs>
<linearGradient id="paint0_linear_304_109" x1="28" y1="5" x2="28" y2="61.5" gradientUnits="userSpaceOnUse">
<stop stop-color="#2B8A44"/>
<stop offset="1" stop-color="#808080"/>
</linearGradient>
</defs>
</svg>
